<svg version="1.1" viewBox="614 133 960 858" width="1289" height="1152" xmlns="http://www.w3.org/2000/svg">
<style>
  svg {
    --color-primary: #2B3537;
    --color-secondary: #FFFFFF;
  }
  @media (prefers-color-scheme: dark) {
    svg {
      --color-primary: #2B3537;
      --color-secondary: #FFFFFF; <!-- E8E8E6 -->
    }
  }
  .fill-primary { fill: var(--color-primary); }
  .fill-secondary { fill: var(--color-secondary); }
  .outline-base {
    stroke: var(--color-primary);
    stroke-width: 12;
    stroke-linejoin: round;
    stroke-miterlimit: 2;
  }
  .label-text {
    fill: var(--color-primary);
    font-family: "SF Mono", "Menlo", "Consolas", "Courier New", monospace;
    font-size: 72px;
    font-weight: 550;
    letter-spacing: 0;
  }
</style>
<path class="outline-base fill-secondary" transform="translate(948,145) translate(614,0) scale(0.87,1) translate(-614,0)" d="m0 0h10l9 3 14 11 16 13 11 9 15 12 11 9 14 11 17 14 14 11 16 13 10 8 14 11 13 11 14 11 17 14 14 11 11 9 14 11 32 26 11 9 14 11 10 8-1-9v-26l-2-5-11-9-6-9-2-7 1-13 6-10 7-6 6-3 5-1h161l10 3 8 6 6 10 1 4v11l-4 11-7 8-8 4-2 4v169l14 8 18 13 13 11 14 13 7 8 11 13 14 21 10 18 8 19 9 27 4 20 3 26v28l-3 26-5 23-9 27-8 18-10 18-8 12-12 16-12 14-13 13-8 7-13 10-18 12-18 10-18 8-24 8-21 5-20 3-11 1h-693l-16-4-14-7-12-11-6-8-6-12-3-11-1-8v-345l1-3h-61l-13-4-8-6-7-8-5-11-1-5v-10l3-10 6-11 9-9 14-11 11-9 14-11 32-26 14-11 13-11 11-8 13-11 14-11 8-6 1-24v-136l2-11 5-8 8-6 6-2h117l9 4 8 9 3 10v37l13-10 17-14 14-11 16-13 17-13 13-11 9-7 16-13 14-11 9-5z"/> <!-- Inner Fill -->
<path class="fill-primary" transform="translate(797,436)" d="m0 0h394l8 5 5 6 3 8v69l-3 8-7 8-7 3h-392l-8-4-6-7-3-7v-71l4-9 5-5z"/> <!-- Top Server -->
<path class="fill-primary" transform="translate(798,561)" d="m0 0h392l8 4 6 7 2 4 1 6v66l-2 8-6 8-8 4h-394l-10-6-5-7-1-4v-72l3-8 5-6z"/> <!-- Center Server -->
<path class="fill-primary" transform="translate(799,686)" d="m0 0h390l10 5 5 6 3 8v70l-3 7-7 8-6 3h-394l-9-5-4-5-3-7v-72l3-8 4-5 7-4z"/> <!-- Bottom Server -->
<path class="fill-secondary" transform="translate(821,475)" d="m0 0h9l6 4 4 6v9l-3 5-4 4-3 1h-9l-6-4-4-6v-8l3-6 5-4z"/> <!-- Top Server : Dot -->
<path class="fill-secondary" transform="translate(822,600)" d="m0 0h7l6 3 4 5 1 2v9l-4 6-6 4h-10l-7-6-2-4v-8l4-7 4-3z"/> <!-- Center Server : Dot -->
<path class="fill-secondary" transform="translate(822,725)" d="m0 0h7l6 3 4 5 1 2v9l-4 6-4 3-3 1h-8l-6-4-4-6v-9l4-6 4-3z"/> <!-- Bottom Server : Dot -->
<path class="fill-primary" transform="translate(1365,471)" d="m0 0 9 1 6 5 2 4v10l-2 4-6 4-5 1-8-2-5-4-2-7 1-7 4-6z"/> <!-- Bubble 1 -->
<path class="fill-primary" transform="translate(1332,543)" d="m0 0h9l5 4 2 4v6l-4 6-3 2h-8l-5-3-3-7 1-6 4-5z"/> <!-- Bubble 2 -->
<path class="fill-primary" transform="translate(1371,583)" d="m0 0h9l8 4 4 6 1 8-3 9-6 5-3 1h-11l-6-4-4-5-1-4v-8l5-8 4-3z"/> <!-- Bubble 3 -->
<path class="fill-primary" transform="translate(1316,604)" d="m0 0h7l8 3 7 8 2 5v9l-3 8-7 7-5 2h-11l-8-4-6-7-2-7 1-10 3-6 7-6z"/> <!-- Bubble 4 -->
<path class="fill-primary" transform="translate(1384,641)" d="m0 0h14l10 4 10 9 4 6 2 8h48l6 15 5 18 3 23v20l-3 22-5 20-3 7h-246l4-16v-77l-3-12-5-8v-4l5-8h128l2-8 7-10 9-6z"/> <!-- Bubble 5 / Beaker Bottom -->
<path class="fill-secondary" transform="translate(1392,684)" d="m0 0h7l8 3 5 5 4 6 1 4v9l-4 8-8 7-3 1h-13l-6-3-6-7-3-8v-7l3-8 4-5 7-4z"/> <!-- Bubble 6 -->
<path class="fill-secondary" transform="translate(1304,695)" d="m0 0 8 1 5 5 2 4v8l-4 6-5 3h-7l-7-4-3-6v-7l4-7z"/> <!-- Bubble 7 -->
<path class="fill-secondary" transform="translate(1351,740)" d="m0 0h7l4 2 3 5v7l-3 5-4 2-9-1-4-4-1-8 3-5z"/> <!-- Bubble 8 -->
<path class="fill-secondary" transform="translate(909,511)" d="m0 0h8l4 4 1 5-2 5-4 3-8-1-3-4v-7z"/> <!-- M Dot -->
<path class="fill-secondary" transform="translate(911,481)" d="m0 0 7 1 3 3 1 6-3 6-2 1h-7l-5-5v-7l4-4z"/> <!-- M Dot -->
<path class="fill-secondary" transform="translate(950,511)" d="m0 0h7l5 6-1 7-5 4-7-1-4-4v-7z"/> <!-- M Dot -->
<path class="fill-secondary" transform="translate(973,577)" d="m0 0h8l5 5-1 8-6 4-5-1-5-5v-6z"/> <!-- M Dot -->
<path class="fill-secondary" transform="translate(1088,511)" d="m0 0h7l4 4v9l-5 4h-6l-5-5v-7z"/> <!-- M Dot -->
<path class="fill-secondary" transform="translate(941,481)" d="m0 0 6 2 3 4-1 8-4 3h-7l-5-5v-6l4-5z"/> <!-- M Dot -->
<path class="fill-secondary" transform="translate(1089,481)" d="m0 0 7 1 3 3 1 5-2 5-4 3h-6l-5-4v-8l4-4z"/> <!-- M Dot -->
<path class="fill-secondary" transform="translate(1061,481)" d="m0 0 6 1 4 4v7l-5 5h-7l-4-4-1-6 3-5z"/> <!-- M Dot -->
<path class="fill-secondary" transform="translate(1048,511)" d="m0 0h6l5 5v7l-3 4-8 1-5-5-1-4 2-5z"/> <!-- M Dot -->
<path class="fill-secondary" transform="translate(1023,577)" d="m0 0h8l4 5v6l-5 5h-7l-4-3-1-8z"/> <!-- M Dot -->
<path class="fill-secondary" transform="translate(909,577)" d="m0 0h8l5 5-1 8-4 3h-8l-4-5v-6z"/> <!-- M Dot -->
<path class="fill-secondary" transform="translate(1087,702)" d="m0 0h8l4 4v8l-6 5-6-1-4-4v-8z"/> <!-- M Dot -->
<path class="fill-secondary" transform="translate(1089,451)" d="m0 0h5l5 5v7l-4 5h-8l-4-4v-8l4-4z"/> <!-- M Dot -->
<path class="fill-secondary" transform="translate(911,451)" d="m0 0 7 1 3 4v8l-4 4h-7l-5-5v-6l4-5z"/> <!-- M Dot -->
<path class="fill-secondary" transform="translate(910,702)" d="m0 0h7l4 4 1 6-3 5-2 1h-8l-4-5v-6z"/> <!-- M Dot -->
<path class="fill-secondary" transform="translate(909,607)" d="m0 0h8l4 4 1 6-3 5-2 1h-7l-4-4-1-7z"/> <!-- M Dot -->
<path class="fill-secondary" transform="translate(1087,577)" d="m0 0h8l4 4 1 5-3 5-2 2h-8l-4-4v-8z"/> <!-- M Dot -->
<path class="fill-secondary" transform="translate(910,732)" d="m0 0h7l4 4 1 5-3 6-2 1h-7l-5-5v-6z"/> <!-- M Dot -->
<path class="fill-secondary" transform="translate(909,637)" d="m0 0h8l4 4 1 5-3 5-3 2h-6l-5-5v-7z"/> <!-- M Dot -->
<path class="fill-secondary" transform="translate(1087,732)" d="m0 0h8l4 4v8l-4 4h-8l-4-4v-8z"/> <!-- M Dot -->
<path class="fill-secondary" transform="translate(1087,637)" d="m0 0h8l4 4v7l-5 5h-6l-5-5v-7z"/> <!-- M Dot -->
<path class="fill-secondary" transform="translate(1087,607)" d="m0 0h8l4 4v8l-4 4h-7l-5-5v-6z"/> <!-- M Dot -->
<path class="fill-secondary" transform="translate(998,607)" d="m0 0h8l4 4v7l-5 5h-6l-5-5v-6z"/> <!-- M Dot -->
<text class="label-text" x="1125" y="865" text-anchor="middle" dominant-baseline="middle">MENKE://HOMELAB</text> <!-- Text -->
</svg>
